<?xml version="1.0" encoding="UTF-8" standalone="no"?>
<!DOCTYPE svg PUBLIC "-//W3C//DTD SVG 1.1//EN"
 "http://www.w3.org/Graphics/SVG/1.1/DTD/svg11.dtd">
<!-- Generated by graphviz version 2.43.0 (0)
 -->
<!-- Title: dependency&#45;cruiser output Pages: 1 -->
<svg width="545pt" height="762pt"
 viewBox="0.00 0.00 544.50 762.00" xmlns="http://www.w3.org/2000/svg" xmlns:xlink="http://www.w3.org/1999/xlink">
<g id="graph0" class="graph" transform="scale(1 1) rotate(0) translate(4 758)">
<title>dependency&#45;cruiser output</title>
<polygon fill="white" stroke="transparent" points="-4,4 -4,-758 540.5,-758 540.5,4 -4,4"/>
<g id="clust1" class="cluster">
<title>cluster_src</title>
<path fill="#ffffff" stroke="black" stroke-width="2" d="M20,-8C20,-8 516.5,-8 516.5,-8 522.5,-8 528.5,-14 528.5,-20 528.5,-20 528.5,-734 528.5,-734 528.5,-740 522.5,-746 516.5,-746 516.5,-746 20,-746 20,-746 14,-746 8,-740 8,-734 8,-734 8,-20 8,-20 8,-14 14,-8 20,-8"/>
<text text-anchor="middle" x="268.25" y="-734.8" font-family="Helvetica,sans-Serif" font-weight="bold" font-size="9.00">src</text>
</g>
<g id="clust2" class="cluster">
<title>cluster_src/_tests</title>
<path fill="#ffffff" stroke="black" stroke-width="2" d="M28,-530C28,-530 85,-530 85,-530 91,-530 97,-536 97,-542 97,-542 97,-570 97,-570 97,-576 91,-582 85,-582 85,-582 28,-582 28,-582 22,-582 16,-576 16,-570 16,-570 16,-542 16,-542 16,-536 22,-530 28,-530"/>
<text text-anchor="middle" x="56.5" y="-570.8" font-family="Helvetica,sans-Serif" font-weight="bold" font-size="9.00">_tests</text>
</g>
<g id="clust3" class="cluster">
<title>cluster_src/_types</title>
<path fill="#ffffff" stroke="black" stroke-width="2" d="M376.5,-298C376.5,-298 422.5,-298 422.5,-298 428.5,-298 434.5,-304 434.5,-310 434.5,-310 434.5,-338 434.5,-338 434.5,-344 428.5,-350 422.5,-350 422.5,-350 376.5,-350 376.5,-350 370.5,-350 364.5,-344 364.5,-338 364.5,-338 364.5,-310 364.5,-310 364.5,-304 370.5,-298 376.5,-298"/>
<text text-anchor="middle" x="399.5" y="-338.8" font-family="Helvetica,sans-Serif" font-weight="bold" font-size="9.00">_types</text>
</g>
<g id="clust4" class="cluster">
<title>cluster_src/api</title>
<path fill="#ffffff" stroke="black" stroke-width="2" d="M179,-418C179,-418 438.5,-418 438.5,-418 444.5,-418 450.5,-424 450.5,-430 450.5,-430 450.5,-698 450.5,-698 450.5,-704 444.5,-710 438.5,-710 438.5,-710 179,-710 179,-710 173,-710 167,-704 167,-698 167,-698 167,-430 167,-430 167,-424 173,-418 179,-418"/>
<text text-anchor="middle" x="308.75" y="-698.8" font-family="Helvetica,sans-Serif" font-weight="bold" font-size="9.00">api</text>
</g>
<g id="clust5" class="cluster">
<title>cluster_src/api/middleware</title>
<path fill="#ffffff" stroke="black" stroke-width="2" d="M187,-452C187,-452 331,-452 331,-452 337,-452 343,-458 343,-464 343,-464 343,-552 343,-552 343,-558 337,-564 331,-564 331,-564 187,-564 187,-564 181,-564 175,-558 175,-552 175,-552 175,-464 175,-464 175,-458 181,-452 187,-452"/>
<text text-anchor="middle" x="259" y="-552.8" font-family="Helvetica,sans-Serif" font-weight="bold" font-size="9.00">middleware</text>
</g>
<g id="clust6" class="cluster">
<title>cluster_src/api/rpc</title>
<path fill="#ffffff" stroke="black" stroke-width="2" d="M262.5,-572C262.5,-572 430.5,-572 430.5,-572 436.5,-572 442.5,-578 442.5,-584 442.5,-584 442.5,-672 442.5,-672 442.5,-678 436.5,-684 430.5,-684 430.5,-684 262.5,-684 262.5,-684 256.5,-684 250.5,-678 250.5,-672 250.5,-672 250.5,-584 250.5,-584 250.5,-578 256.5,-572 262.5,-572"/>
<text text-anchor="middle" x="346.5" y="-672.8" font-family="Helvetica,sans-Serif" font-weight="bold" font-size="9.00">rpc</text>
</g>
<g id="clust7" class="cluster">
<title>cluster_src/api/rpc/eth</title>
<path fill="#ffffff" stroke="black" stroke-width="2" d="M376.5,-580C376.5,-580 422.5,-580 422.5,-580 428.5,-580 434.5,-586 434.5,-592 434.5,-592 434.5,-620 434.5,-620 434.5,-626 428.5,-632 422.5,-632 422.5,-632 376.5,-632 376.5,-632 370.5,-632 364.5,-626 364.5,-620 364.5,-620 364.5,-592 364.5,-592 364.5,-586 370.5,-580 376.5,-580"/>
<text text-anchor="middle" x="399.5" y="-620.8" font-family="Helvetica,sans-Serif" font-weight="bold" font-size="9.00">eth</text>
</g>
<g id="clust8" class="cluster">
<title>cluster_src/api/rpc/evm</title>
<path fill="#ffffff" stroke="black" stroke-width="2" d="M270.5,-606C270.5,-606 316.5,-606 316.5,-606 322.5,-606 328.5,-612 328.5,-618 328.5,-618 328.5,-646 328.5,-646 328.5,-652 322.5,-658 316.5,-658 316.5,-658 270.5,-658 270.5,-658 264.5,-658 258.5,-652 258.5,-646 258.5,-646 258.5,-618 258.5,-618 258.5,-612 264.5,-606 270.5,-606"/>
<text text-anchor="middle" x="293.5" y="-646.8" font-family="Helvetica,sans-Serif" font-weight="bold" font-size="9.00">evm</text>
</g>
<g id="clust9" class="cluster">
<title>cluster_src/logger</title>
<path fill="#ffffff" stroke="black" stroke-width="2" d="M376.5,-358C376.5,-358 422.5,-358 422.5,-358 428.5,-358 434.5,-364 434.5,-370 434.5,-370 434.5,-398 434.5,-398 434.5,-404 428.5,-410 422.5,-410 422.5,-410 376.5,-410 376.5,-410 370.5,-410 364.5,-404 364.5,-398 364.5,-398 364.5,-370 364.5,-370 364.5,-364 370.5,-358 376.5,-358"/>
<text text-anchor="middle" x="399.5" y="-398.8" font-family="Helvetica,sans-Serif" font-weight="bold" font-size="9.00">logger</text>
</g>
<g id="clust10" class="cluster">
<title>cluster_src/miner</title>
<path fill="#ffffff" stroke="black" stroke-width="2" d="M257,-110C257,-110 422.5,-110 422.5,-110 428.5,-110 434.5,-116 434.5,-122 434.5,-122 434.5,-184 434.5,-184 434.5,-190 428.5,-196 422.5,-196 422.5,-196 257,-196 257,-196 251,-196 245,-190 245,-184 245,-184 245,-122 245,-122 245,-116 251,-110 257,-110"/>
<text text-anchor="middle" x="339.75" y="-184.8" font-family="Helvetica,sans-Serif" font-weight="bold" font-size="9.00">miner</text>
</g>
<g id="clust11" class="cluster">
<title>cluster_src/miner/_tests</title>
<path fill="#ffffff" stroke="black" stroke-width="2" d="M265,-118C265,-118 322,-118 322,-118 328,-118 334,-124 334,-130 334,-130 334,-158 334,-158 334,-164 328,-170 322,-170 322,-170 265,-170 265,-170 259,-170 253,-164 253,-158 253,-158 253,-130 253,-130 253,-124 259,-118 265,-118"/>
<text text-anchor="middle" x="293.5" y="-158.8" font-family="Helvetica,sans-Serif" font-weight="bold" font-size="9.00">_tests</text>
</g>
<g id="clust12" class="cluster">
<title>cluster_src/provider</title>
<path fill="#ffffff" stroke="black" stroke-width="2" d="M33.5,-384C33.5,-384 79.5,-384 79.5,-384 85.5,-384 91.5,-390 91.5,-396 91.5,-396 91.5,-424 91.5,-424 91.5,-430 85.5,-436 79.5,-436 79.5,-436 33.5,-436 33.5,-436 27.5,-436 21.5,-430 21.5,-424 21.5,-424 21.5,-396 21.5,-396 21.5,-390 27.5,-384 33.5,-384"/>
<text text-anchor="middle" x="56.5" y="-424.8" font-family="Helvetica,sans-Serif" font-weight="bold" font-size="9.00">provider</text>
</g>
<g id="clust13" class="cluster">
<title>cluster_src/utils</title>
<path fill="#ffffff" stroke="black" stroke-width="2" d="M363,-204C363,-204 508.5,-204 508.5,-204 514.5,-204 520.5,-210 520.5,-216 520.5,-216 520.5,-278 520.5,-278 520.5,-284 514.5,-290 508.5,-290 508.5,-290 363,-290 363,-290 357,-290 351,-284 351,-278 351,-278 351,-216 351,-216 351,-210 357,-204 363,-204"/>
<text text-anchor="middle" x="435.75" y="-278.8" font-family="Helvetica,sans-Serif" font-weight="bold" font-size="9.00">utils</text>
</g>
<g id="clust14" class="cluster">
<title>cluster_src/utils/_tests</title>
<path fill="#ffffff" stroke="black" stroke-width="2" d="M371,-212C371,-212 428,-212 428,-212 434,-212 440,-218 440,-224 440,-224 440,-252 440,-252 440,-258 434,-264 428,-264 428,-264 371,-264 371,-264 365,-264 359,-258 359,-252 359,-252 359,-224 359,-224 359,-218 365,-212 371,-212"/>
<text text-anchor="middle" x="399.5" y="-252.8" font-family="Helvetica,sans-Serif" font-weight="bold" font-size="9.00">_tests</text>
</g>
<g id="clust15" class="cluster">
<title>cluster_src/vm</title>
<path fill="#ffffff" stroke="black" stroke-width="2" d="M368.5,-16C368.5,-16 508.5,-16 508.5,-16 514.5,-16 520.5,-22 520.5,-28 520.5,-28 520.5,-90 520.5,-90 520.5,-96 514.5,-102 508.5,-102 508.5,-102 368.5,-102 368.5,-102 362.5,-102 356.5,-96 356.5,-90 356.5,-90 356.5,-28 356.5,-28 356.5,-22 362.5,-16 368.5,-16"/>
<text text-anchor="middle" x="438.5" y="-90.8" font-family="Helvetica,sans-Serif" font-weight="bold" font-size="9.00">vm</text>
</g>
<g id="clust16" class="cluster">
<title>cluster_src/vm/_tests</title>
<path fill="#ffffff" stroke="black" stroke-width="2" d="M376.5,-24C376.5,-24 422.5,-24 422.5,-24 428.5,-24 434.5,-30 434.5,-36 434.5,-36 434.5,-64 434.5,-64 434.5,-70 428.5,-76 422.5,-76 422.5,-76 376.5,-76 376.5,-76 370.5,-76 364.5,-70 364.5,-64 364.5,-64 364.5,-36 364.5,-36 364.5,-30 370.5,-24 376.5,-24"/>
<text text-anchor="middle" x="399.5" y="-64.8" font-family="Helvetica,sans-Serif" font-weight="bold" font-size="9.00">_tests</text>
</g>
<g id="clust17" class="cluster">
<title>cluster_src/wallet</title>
<path fill="#ffffff" stroke="black" stroke-width="2" d="M33.5,-151C33.5,-151 79.5,-151 79.5,-151 85.5,-151 91.5,-157 91.5,-163 91.5,-163 91.5,-191 91.5,-191 91.5,-197 85.5,-203 79.5,-203 79.5,-203 33.5,-203 33.5,-203 27.5,-203 21.5,-197 21.5,-191 21.5,-191 21.5,-163 21.5,-163 21.5,-157 27.5,-151 33.5,-151"/>
<text text-anchor="middle" x="56.5" y="-191.8" font-family="Helvetica,sans-Serif" font-weight="bold" font-size="9.00">wallet</text>
</g>
<!-- src/_tests/index.test.ts -->
<g id="node1" class="node">
<title>src/_tests/index.test.ts</title>
<g id="a_node1"><a xlink:href="src/_tests/index.test.ts" xlink:title="index.test.ts">
<path fill="#ddfeff" stroke="black" d="M83,-556C83,-556 30,-556 30,-556 27,-556 24,-553 24,-550 24,-550 24,-544 24,-544 24,-541 27,-538 30,-538 30,-538 83,-538 83,-538 86,-538 89,-541 89,-544 89,-544 89,-550 89,-550 89,-553 86,-556 83,-556"/>
<text text-anchor="start" x="32" y="-544.8" font-family="Helvetica,sans-Serif" font-size="9.00">index.test.ts</text>
</a>
</g>
</g>
<!-- src/index.ts -->
<g id="node2" class="node">
<title>src/index.ts</title>
<g id="a_node2"><a xlink:href="src/index.ts" xlink:title="index.ts">
<path fill="#ddfeff" stroke="black" d="M153,-556C153,-556 111,-556 111,-556 108,-556 105,-553 105,-550 105,-550 105,-544 105,-544 105,-541 108,-538 111,-538 111,-538 153,-538 153,-538 156,-538 159,-541 159,-544 159,-544 159,-550 159,-550 159,-553 156,-556 153,-556"/>
<text text-anchor="start" x="116" y="-544.8" font-family="Helvetica,sans-Serif" font-size="9.00">index.ts</text>
</a>
</g>
</g>
<!-- src/_tests/index.test.ts&#45;&gt;src/index.ts -->
<g id="edge1" class="edge">
<title>src/_tests/index.test.ts&#45;&gt;src/index.ts</title>
<path fill="none" stroke="#000000" stroke-width="2" stroke-opacity="0.200000" d="M89.1,-547C92.24,-547 95.43,-547 98.58,-547"/>
<polygon fill="#000000" fill-opacity="0.200000" stroke="#000000" stroke-width="2" stroke-opacity="0.200000" points="98.96,-549.1 104.96,-547 98.96,-544.9 98.96,-549.1"/>
</g>
<!-- src/api/index.ts -->
<g id="node4" class="node">
<title>src/api/index.ts</title>
<g id="a_node4"><a xlink:href="src/api/index.ts" xlink:title="index.ts">
<path fill="#ddfeff" stroke="black" d="M231,-444C231,-444 189,-444 189,-444 186,-444 183,-441 183,-438 183,-438 183,-432 183,-432 183,-429 186,-426 189,-426 189,-426 231,-426 231,-426 234,-426 237,-429 237,-432 237,-432 237,-438 237,-438 237,-441 234,-444 231,-444"/>
<text text-anchor="start" x="194" y="-432.8" font-family="Helvetica,sans-Serif" font-size="9.00">index.ts</text>
</a>
</g>
</g>
<!-- src/index.ts&#45;&gt;src/api/index.ts -->
<g id="edge14" class="edge">
<title>src/index.ts&#45;&gt;src/api/index.ts</title>
<path fill="none" stroke="#000000" stroke-width="2" stroke-opacity="0.200000" d="M133.56,-537.76C135.23,-518.53 141.76,-473.93 167,-449 169.94,-446.1 173.5,-443.8 177.28,-441.97"/>
<polygon fill="#000000" fill-opacity="0.200000" stroke="#000000" stroke-width="2" stroke-opacity="0.200000" points="178.2,-443.86 182.94,-439.63 176.6,-439.98 178.2,-443.86"/>
</g>
<!-- src/api/rpc/index.ts -->
<g id="node5" class="node">
<title>src/api/rpc/index.ts</title>
<g id="a_node5"><a xlink:href="src/api/rpc/index.ts" xlink:title="index.ts">
<path fill="#ddfeff" stroke="black" d="M314.5,-598C314.5,-598 272.5,-598 272.5,-598 269.5,-598 266.5,-595 266.5,-592 266.5,-592 266.5,-586 266.5,-586 266.5,-583 269.5,-580 272.5,-580 272.5,-580 314.5,-580 314.5,-580 317.5,-580 320.5,-583 320.5,-586 320.5,-586 320.5,-592 320.5,-592 320.5,-595 317.5,-598 314.5,-598"/>
<text text-anchor="start" x="277.5" y="-586.8" font-family="Helvetica,sans-Serif" font-size="9.00">index.ts</text>
</a>
</g>
</g>
<!-- src/index.ts&#45;&gt;src/api/rpc/index.ts -->
<g id="edge16" class="edge">
<title>src/index.ts&#45;&gt;src/api/rpc/index.ts</title>
<path fill="none" stroke="#000000" stroke-width="2" stroke-opacity="0.200000" d="M146.02,-556.15C152.13,-560.04 159.67,-564.3 167,-567 197.56,-578.25 234.47,-583.83 260.32,-586.55"/>
<polygon fill="#000000" fill-opacity="0.200000" stroke="#000000" stroke-width="2" stroke-opacity="0.200000" points="260.14,-588.64 266.32,-587.15 260.56,-584.46 260.14,-588.64"/>
</g>
<!-- src/api/middleware/index.ts -->
<g id="node9" class="node">
<title>src/api/middleware/index.ts</title>
<g id="a_node9"><a xlink:href="src/api/middleware/index.ts" xlink:title="index.ts">
<path fill="#ddfeff" stroke="black" d="M231,-523C231,-523 189,-523 189,-523 186,-523 183,-520 183,-517 183,-517 183,-511 183,-511 183,-508 186,-505 189,-505 189,-505 231,-505 231,-505 234,-505 237,-508 237,-511 237,-511 237,-517 237,-517 237,-520 234,-523 231,-523"/>
<text text-anchor="start" x="194" y="-511.8" font-family="Helvetica,sans-Serif" font-size="9.00">index.ts</text>
</a>
</g>
</g>
<!-- src/index.ts&#45;&gt;src/api/middleware/index.ts -->
<g id="edge15" class="edge">
<title>src/index.ts&#45;&gt;src/api/middleware/index.ts</title>
<path fill="none" stroke="#000000" stroke-width="2" stroke-opacity="0.200000" d="M146.84,-537.87C152.86,-534.16 160.11,-530.04 167,-527 170.22,-525.58 173.64,-524.25 177.09,-523.02"/>
<polygon fill="#000000" fill-opacity="0.200000" stroke="#000000" stroke-width="2" stroke-opacity="0.200000" points="177.88,-524.97 182.89,-521.05 176.53,-520.99 177.88,-524.97"/>
</g>
<!-- src/utils/index.ts -->
<g id="node12" class="node">
<title>src/utils/index.ts</title>
<g id="a_node12"><a xlink:href="src/utils/index.ts" xlink:title="index.ts">
<path fill="#ddfeff" stroke="black" d="M506.5,-251C506.5,-251 464.5,-251 464.5,-251 461.5,-251 458.5,-248 458.5,-245 458.5,-245 458.5,-239 458.5,-239 458.5,-236 461.5,-233 464.5,-233 464.5,-233 506.5,-233 506.5,-233 509.5,-233 512.5,-236 512.5,-239 512.5,-239 512.5,-245 512.5,-245 512.5,-248 509.5,-251 506.5,-251"/>
<text text-anchor="start" x="469.5" y="-239.8" font-family="Helvetica,sans-Serif" font-size="9.00">index.ts</text>
</a>
</g>
</g>
<!-- src/index.ts&#45;&gt;src/utils/index.ts -->
<g id="edge17" class="edge">
<title>src/index.ts&#45;&gt;src/utils/index.ts</title>
<path fill="none" stroke="#000000" stroke-width="2" stroke-opacity="0.200000" d="M138.32,-556.15C152.28,-579.13 192.55,-639 245,-661 329.9,-696.61 390.5,-704.82 450.5,-635 475.47,-605.94 482.77,-327.3 484.21,-257.7"/>
<polygon fill="#000000" fill-opacity="0.200000" stroke="#000000" stroke-width="2" stroke-opacity="0.200000" points="486.31,-257.32 484.34,-251.28 482.12,-257.24 486.31,-257.32"/>
</g>
<!-- src/_types/index.ts -->
<g id="node3" class="node">
<title>src/_types/index.ts</title>
<g id="a_node3"><a xlink:href="src/_types/index.ts" xlink:title="index.ts">
<path fill="#ddfeff" stroke="black" d="M420.5,-324C420.5,-324 378.5,-324 378.5,-324 375.5,-324 372.5,-321 372.5,-318 372.5,-318 372.5,-312 372.5,-312 372.5,-309 375.5,-306 378.5,-306 378.5,-306 420.5,-306 420.5,-306 423.5,-306 426.5,-309 426.5,-312 426.5,-312 426.5,-318 426.5,-318 426.5,-321 423.5,-324 420.5,-324"/>
<text text-anchor="start" x="383.5" y="-312.8" font-family="Helvetica,sans-Serif" font-size="9.00">index.ts</text>
</a>
</g>
</g>
<!-- src/api/index.ts&#45;&gt;src/_types/index.ts -->
<g id="edge2" class="edge">
<title>src/api/index.ts&#45;&gt;src/_types/index.ts</title>
<path fill="none" stroke="#000000" stroke-width="2" stroke-opacity="0.200000" d="M225.09,-425.98C258.21,-404.78 341.06,-351.76 378.98,-327.49"/>
<polygon fill="#000000" fill-opacity="0.200000" stroke="#000000" stroke-width="2" stroke-opacity="0.200000" points="380.32,-329.13 384.24,-324.12 378.06,-325.59 380.32,-329.13"/>
</g>
<!-- src/api/index.ts&#45;&gt;src/api/rpc/index.ts -->
<g id="edge3" class="edge">
<title>src/api/index.ts&#45;&gt;src/api/rpc/index.ts</title>
<path fill="none" stroke="#000000" stroke-width="2" stroke-opacity="0.200000" d="M232.92,-444.4C234.49,-445.75 235.89,-447.28 237,-449 251.23,-471.09 230.11,-545.34 245,-567 248.86,-572.62 254.54,-576.83 260.64,-579.99"/>
<polygon fill="#000000" fill-opacity="0.200000" stroke="#000000" stroke-width="2" stroke-opacity="0.200000" points="259.99,-582 266.32,-582.59 261.74,-578.18 259.99,-582"/>
</g>
<!-- src/api/rpc/eth/index.ts -->
<g id="node11" class="node">
<title>src/api/rpc/eth/index.ts</title>
<g id="a_node11"><a xlink:href="src/api/rpc/eth/index.ts" xlink:title="index.ts">
<path fill="#ddfeff" stroke="black" d="M420.5,-606C420.5,-606 378.5,-606 378.5,-606 375.5,-606 372.5,-603 372.5,-600 372.5,-600 372.5,-594 372.5,-594 372.5,-591 375.5,-588 378.5,-588 378.5,-588 420.5,-588 420.5,-588 423.5,-588 426.5,-591 426.5,-594 426.5,-594 426.5,-600 426.5,-600 426.5,-603 423.5,-606 420.5,-606"/>
<text text-anchor="start" x="383.5" y="-594.8" font-family="Helvetica,sans-Serif" font-size="9.00">index.ts</text>
</a>
</g>
</g>
<!-- src/api/rpc/index.ts&#45;&gt;src/api/rpc/eth/index.ts -->
<g id="edge13" class="edge">
<title>src/api/rpc/index.ts&#45;&gt;src/api/rpc/eth/index.ts</title>
<path fill="none" stroke="#000000" stroke-width="2" stroke-opacity="0.200000" d="M320.74,-591.02C334.54,-592.08 351.57,-593.39 366.17,-594.51"/>
<polygon fill="#000000" fill-opacity="0.200000" stroke="#000000" stroke-width="2" stroke-opacity="0.200000" points="366.12,-596.62 372.26,-594.98 366.44,-592.43 366.12,-596.62"/>
</g>
<!-- src/api/middleware/authentication.ts -->
<g id="node6" class="node">
<title>src/api/middleware/authentication.ts</title>
<g id="a_node6"><a xlink:href="src/api/middleware/authentication.ts" xlink:title="authentication.ts">
<path fill="#ddfeff" stroke="black" d="M329,-538C329,-538 258,-538 258,-538 255,-538 252,-535 252,-532 252,-532 252,-526 252,-526 252,-523 255,-520 258,-520 258,-520 329,-520 329,-520 332,-520 335,-523 335,-526 335,-526 335,-532 335,-532 335,-535 332,-538 329,-538"/>
<text text-anchor="start" x="260" y="-526.8" font-family="Helvetica,sans-Serif" font-size="9.00">authentication.ts</text>
</a>
</g>
</g>
<!-- src/api/middleware/authentication.ts&#45;&gt;src/_types/index.ts -->
<g id="edge4" class="edge">
<title>src/api/middleware/authentication.ts&#45;&gt;src/_types/index.ts</title>
<path fill="none" stroke="#000000" stroke-width="2" stroke-opacity="0.200000" d="M335.2,-520.93C338.17,-519.06 340.84,-516.78 343,-514 353.85,-500.03 343.14,-370.85 351,-355 356.58,-343.75 366.91,-334.46 376.52,-327.68"/>
<polygon fill="#000000" fill-opacity="0.200000" stroke="#000000" stroke-width="2" stroke-opacity="0.200000" points="377.93,-329.25 381.74,-324.17 375.59,-325.77 377.93,-329.25"/>
</g>
<!-- src/logger/index.ts -->
<g id="node7" class="node">
<title>src/logger/index.ts</title>
<g id="a_node7"><a xlink:href="src/logger/index.ts" xlink:title="index.ts">
<path fill="#ddfeff" stroke="black" d="M420.5,-384C420.5,-384 378.5,-384 378.5,-384 375.5,-384 372.5,-381 372.5,-378 372.5,-378 372.5,-372 372.5,-372 372.5,-369 375.5,-366 378.5,-366 378.5,-366 420.5,-366 420.5,-366 423.5,-366 426.5,-369 426.5,-372 426.5,-372 426.5,-378 426.5,-378 426.5,-381 423.5,-384 420.5,-384"/>
<text text-anchor="start" x="383.5" y="-372.8" font-family="Helvetica,sans-Serif" font-size="9.00">index.ts</text>
</a>
</g>
</g>
<!-- src/api/middleware/authentication.ts&#45;&gt;src/logger/index.ts -->
<g id="edge5" class="edge">
<title>src/api/middleware/authentication.ts&#45;&gt;src/logger/index.ts</title>
<path fill="none" stroke="#000000" stroke-width="2" stroke-opacity="0.200000" d="M334.76,-519.84C337.74,-518.2 340.54,-516.27 343,-514 379.59,-480.22 392.5,-419.12 396.68,-390.54"/>
<polygon fill="#000000" fill-opacity="0.200000" stroke="#000000" stroke-width="2" stroke-opacity="0.200000" points="398.8,-390.55 397.52,-384.32 394.63,-389.98 398.8,-390.55"/>
</g>
<!-- src/api/middleware/bodyParser.ts -->
<g id="node8" class="node">
<title>src/api/middleware/bodyParser.ts</title>
<g id="a_node8"><a xlink:href="src/api/middleware/bodyParser.ts" xlink:title="bodyParser.ts">
<path fill="#ddfeff" stroke="black" d="M324,-478C324,-478 263,-478 263,-478 260,-478 257,-475 257,-472 257,-472 257,-466 257,-466 257,-463 260,-460 263,-460 263,-460 324,-460 324,-460 327,-460 330,-463 330,-466 330,-466 330,-472 330,-472 330,-475 327,-478 324,-478"/>
<text text-anchor="start" x="265" y="-466.8" font-family="Helvetica,sans-Serif" font-size="9.00">bodyParser.ts</text>
</a>
</g>
</g>
<!-- src/api/middleware/bodyParser.ts&#45;&gt;src/_types/index.ts -->
<g id="edge6" class="edge">
<title>src/api/middleware/bodyParser.ts&#45;&gt;src/_types/index.ts</title>
<path fill="none" stroke="#000000" stroke-width="2" stroke-opacity="0.200000" d="M300.15,-459.81C309.81,-443.81 329.76,-409.63 343,-379 347.46,-368.68 344.69,-364.3 351,-355 358.25,-344.31 369.12,-334.87 378.63,-327.84"/>
<polygon fill="#000000" fill-opacity="0.200000" stroke="#000000" stroke-width="2" stroke-opacity="0.200000" points="380.08,-329.39 383.75,-324.2 377.64,-325.97 380.08,-329.39"/>
</g>
<!-- src/api/middleware/index.ts&#45;&gt;src/api/middleware/authentication.ts -->
<g id="edge7" class="edge">
<title>src/api/middleware/index.ts&#45;&gt;src/api/middleware/authentication.ts</title>
<path fill="none" stroke="#000000" stroke-width="2" stroke-opacity="0.200000" d="M237.24,-518.83C240,-519.34 242.86,-519.86 245.77,-520.4"/>
<polygon fill="#000000" fill-opacity="0.200000" stroke="#000000" stroke-width="2" stroke-opacity="0.200000" points="245.5,-522.48 251.78,-521.5 246.26,-518.35 245.5,-522.48"/>
</g>
<!-- src/api/middleware/index.ts&#45;&gt;src/api/middleware/bodyParser.ts -->
<g id="edge8" class="edge">
<title>src/api/middleware/index.ts&#45;&gt;src/api/middleware/bodyParser.ts</title>
<path fill="none" stroke="#000000" stroke-width="2" stroke-opacity="0.200000" d="M232.28,-504.94C233.99,-503.75 235.59,-502.44 237,-501 242.83,-495.03 238.71,-489.5 245,-484 246.9,-482.34 248.99,-480.85 251.2,-479.54"/>
<polygon fill="#000000" fill-opacity="0.200000" stroke="#000000" stroke-width="2" stroke-opacity="0.200000" points="252.19,-481.39 256.53,-476.76 250.24,-477.67 252.19,-481.39"/>
</g>
<!-- src/api/middleware/logging.ts -->
<g id="node10" class="node">
<title>src/api/middleware/logging.ts</title>
<g id="a_node10"><a xlink:href="src/api/middleware/logging.ts" xlink:title="logging.ts">
<path fill="#ddfeff" stroke="black" d="M315.5,-508C315.5,-508 271.5,-508 271.5,-508 268.5,-508 265.5,-505 265.5,-502 265.5,-502 265.5,-496 265.5,-496 265.5,-493 268.5,-490 271.5,-490 271.5,-490 315.5,-490 315.5,-490 318.5,-490 321.5,-493 321.5,-496 321.5,-496 321.5,-502 321.5,-502 321.5,-505 318.5,-508 315.5,-508"/>
<text text-anchor="start" x="273.5" y="-496.8" font-family="Helvetica,sans-Serif" font-size="9.00">logging.ts</text>
</a>
</g>
</g>
<!-- src/api/middleware/index.ts&#45;&gt;src/api/middleware/logging.ts -->
<g id="edge9" class="edge">
<title>src/api/middleware/index.ts&#45;&gt;src/api/middleware/logging.ts</title>
<path fill="none" stroke="#000000" stroke-width="2" stroke-opacity="0.200000" d="M237.24,-509.17C244.29,-507.87 252.01,-506.45 259.38,-505.1"/>
<polygon fill="#000000" fill-opacity="0.200000" stroke="#000000" stroke-width="2" stroke-opacity="0.200000" points="259.95,-507.13 265.47,-503.97 259.19,-503 259.95,-507.13"/>
</g>
<!-- src/api/middleware/logging.ts&#45;&gt;src/_types/index.ts -->
<g id="edge10" class="edge">
<title>src/api/middleware/logging.ts&#45;&gt;src/_types/index.ts</title>
<path fill="none" stroke="#000000" stroke-width="2" stroke-opacity="0.200000" d="M321.53,-496.54C329.64,-494.42 337.77,-490.65 343,-484 360.75,-461.42 338.08,-380.65 351,-355 356.65,-343.79 366.98,-334.5 376.57,-327.71"/>
<polygon fill="#000000" fill-opacity="0.200000" stroke="#000000" stroke-width="2" stroke-opacity="0.200000" points="377.99,-329.28 381.79,-324.19 375.64,-325.8 377.99,-329.28"/>
</g>
<!-- src/api/middleware/logging.ts&#45;&gt;src/logger/index.ts -->
<g id="edge11" class="edge">
<title>src/api/middleware/logging.ts&#45;&gt;src/logger/index.ts</title>
<path fill="none" stroke="#000000" stroke-width="2" stroke-opacity="0.200000" d="M321.58,-494.7C329.14,-492.48 336.93,-489.11 343,-484 372.84,-458.87 388.44,-413.67 394.86,-390.15"/>
<polygon fill="#000000" fill-opacity="0.200000" stroke="#000000" stroke-width="2" stroke-opacity="0.200000" points="396.95,-390.46 396.44,-384.12 392.89,-389.4 396.95,-390.46"/>
</g>
<!-- src/api/rpc/eth/index.ts&#45;&gt;src/utils/index.ts -->
<g id="edge12" class="edge">
<title>src/api/rpc/eth/index.ts&#45;&gt;src/utils/index.ts</title>
<path fill="none" stroke="#000000" stroke-width="2" stroke-opacity="0.200000" d="M403.22,-587.87C411.14,-561.14 434.6,-480.67 450.5,-413 463.89,-356.02 476.45,-287.55 481.8,-257.46"/>
<polygon fill="#000000" fill-opacity="0.200000" stroke="#000000" stroke-width="2" stroke-opacity="0.200000" points="483.91,-257.59 482.88,-251.32 479.77,-256.86 483.91,-257.59"/>
</g>
<!-- src/api/rpc/evm/index.ts -->
<g id="node13" class="node">
<title>src/api/rpc/evm/index.ts</title>
<g id="a_node13"><a xlink:href="src/api/rpc/evm/index.ts" xlink:title="no&#45;orphans">
<path fill="#ccffcc" stroke="orange" d="M314.5,-632C314.5,-632 272.5,-632 272.5,-632 269.5,-632 266.5,-629 266.5,-626 266.5,-626 266.5,-620 266.5,-620 266.5,-617 269.5,-614 272.5,-614 272.5,-614 314.5,-614 314.5,-614 317.5,-614 320.5,-617 320.5,-620 320.5,-620 320.5,-626 320.5,-626 320.5,-629 317.5,-632 314.5,-632"/>
<text text-anchor="start" x="277.5" y="-620.8" font-family="Helvetica,sans-Serif" font-size="9.00" fill="orange">index.ts</text>
</a>
</g>
</g>
<!-- src/miner/_tests/miner.test.ts -->
<g id="node14" class="node">
<title>src/miner/_tests/miner.test.ts</title>
<g id="a_node14"><a xlink:href="src/miner/_tests/miner.test.ts" xlink:title="miner.test.ts">
<path fill="#ddfeff" stroke="black" d="M320,-144C320,-144 267,-144 267,-144 264,-144 261,-141 261,-138 261,-138 261,-132 261,-132 261,-129 264,-126 267,-126 267,-126 320,-126 320,-126 323,-126 326,-129 326,-132 326,-132 326,-138 326,-138 326,-141 323,-144 320,-144"/>
<text text-anchor="start" x="269" y="-132.8" font-family="Helvetica,sans-Serif" font-size="9.00">miner.test.ts</text>
</a>
</g>
</g>
<!-- src/miner/index.ts -->
<g id="node15" class="node">
<title>src/miner/index.ts</title>
<g id="a_node15"><a xlink:href="src/miner/index.ts" xlink:title="index.ts">
<path fill="#ddfeff" stroke="black" d="M420.5,-144C420.5,-144 378.5,-144 378.5,-144 375.5,-144 372.5,-141 372.5,-138 372.5,-138 372.5,-132 372.5,-132 372.5,-129 375.5,-126 378.5,-126 378.5,-126 420.5,-126 420.5,-126 423.5,-126 426.5,-129 426.5,-132 426.5,-132 426.5,-138 426.5,-138 426.5,-141 423.5,-144 420.5,-144"/>
<text text-anchor="start" x="383.5" y="-132.8" font-family="Helvetica,sans-Serif" font-size="9.00">index.ts</text>
</a>
</g>
</g>
<!-- src/miner/_tests/miner.test.ts&#45;&gt;src/miner/index.ts -->
<g id="edge18" class="edge">
<title>src/miner/_tests/miner.test.ts&#45;&gt;src/miner/index.ts</title>
<path fill="none" stroke="#000000" stroke-width="2" stroke-opacity="0.200000" d="M326.27,-135C338.9,-135 353.41,-135 366.1,-135"/>
<polygon fill="#000000" fill-opacity="0.200000" stroke="#000000" stroke-width="2" stroke-opacity="0.200000" points="366.17,-137.1 372.17,-135 366.17,-132.9 366.17,-137.1"/>
</g>
<!-- src/miner/index.ts&#45;&gt;src/utils/index.ts -->
<g id="edge19" class="edge">
<title>src/miner/index.ts&#45;&gt;src/utils/index.ts</title>
<path fill="none" stroke="#000000" stroke-width="2" stroke-opacity="0.200000" d="M407.66,-144.12C422.35,-162.84 455.99,-205.68 473.48,-227.96"/>
<polygon fill="#000000" fill-opacity="0.200000" stroke="#000000" stroke-width="2" stroke-opacity="0.200000" points="472,-229.48 477.36,-232.9 475.3,-226.88 472,-229.48"/>
</g>
<!-- src/vm/index.ts -->
<g id="node16" class="node">
<title>src/vm/index.ts</title>
<g id="a_node16"><a xlink:href="src/vm/index.ts" xlink:title="index.ts">
<path fill="#ddfeff" stroke="black" d="M506.5,-63C506.5,-63 464.5,-63 464.5,-63 461.5,-63 458.5,-60 458.5,-57 458.5,-57 458.5,-51 458.5,-51 458.5,-48 461.5,-45 464.5,-45 464.5,-45 506.5,-45 506.5,-45 509.5,-45 512.5,-48 512.5,-51 512.5,-51 512.5,-57 512.5,-57 512.5,-60 509.5,-63 506.5,-63"/>
<text text-anchor="start" x="469.5" y="-51.8" font-family="Helvetica,sans-Serif" font-size="9.00">index.ts</text>
</a>
</g>
</g>
<!-- src/miner/index.ts&#45;&gt;src/vm/index.ts -->
<g id="edge20" class="edge">
<title>src/miner/index.ts&#45;&gt;src/vm/index.ts</title>
<path fill="none" stroke="#000000" stroke-width="2" stroke-opacity="0.200000" d="M410.14,-125.71C424.95,-111.43 453.38,-84.01 470.48,-67.52"/>
<polygon fill="#000000" fill-opacity="0.200000" stroke="#000000" stroke-width="2" stroke-opacity="0.200000" points="472.12,-68.86 474.98,-63.18 469.2,-65.84 472.12,-68.86"/>
</g>
<!-- src/provider/index.ts -->
<g id="node17" class="node">
<title>src/provider/index.ts</title>
<g id="a_node17"><a xlink:href="src/provider/index.ts" xlink:title="no&#45;orphans">
<path fill="#ccffcc" stroke="orange" d="M77.5,-410C77.5,-410 35.5,-410 35.5,-410 32.5,-410 29.5,-407 29.5,-404 29.5,-404 29.5,-398 29.5,-398 29.5,-395 32.5,-392 35.5,-392 35.5,-392 77.5,-392 77.5,-392 80.5,-392 83.5,-395 83.5,-398 83.5,-398 83.5,-404 83.5,-404 83.5,-407 80.5,-410 77.5,-410"/>
<text text-anchor="start" x="40.5" y="-398.8" font-family="Helvetica,sans-Serif" font-size="9.00" fill="orange">index.ts</text>
</a>
</g>
</g>
<!-- src/utils/_tests/index.test.ts -->
<g id="node18" class="node">
<title>src/utils/_tests/index.test.ts</title>
<g id="a_node18"><a xlink:href="src/utils/_tests/index.test.ts" xlink:title="index.test.ts">
<path fill="#ddfeff" stroke="black" d="M426,-238C426,-238 373,-238 373,-238 370,-238 367,-235 367,-232 367,-232 367,-226 367,-226 367,-223 370,-220 373,-220 373,-220 426,-220 426,-220 429,-220 432,-223 432,-226 432,-226 432,-232 432,-232 432,-235 429,-238 426,-238"/>
<text text-anchor="start" x="375" y="-226.8" font-family="Helvetica,sans-Serif" font-size="9.00">index.test.ts</text>
</a>
</g>
</g>
<!-- src/utils/_tests/index.test.ts&#45;&gt;src/utils/index.ts -->
<g id="edge21" class="edge">
<title>src/utils/_tests/index.test.ts&#45;&gt;src/utils/index.ts</title>
<path fill="none" stroke="#000000" stroke-width="2" stroke-opacity="0.200000" d="M432.26,-233.91C438.87,-234.94 445.85,-236.02 452.48,-237.04"/>
<polygon fill="#000000" fill-opacity="0.200000" stroke="#000000" stroke-width="2" stroke-opacity="0.200000" points="452.19,-239.12 458.44,-237.97 452.83,-234.97 452.19,-239.12"/>
</g>
<!-- src/vm/_tests/vm.test.ts -->
<g id="node19" class="node">
<title>src/vm/_tests/vm.test.ts</title>
<g id="a_node19"><a xlink:href="src/vm/_tests/vm.test.ts" xlink:title="vm.test.ts">
<path fill="#ddfeff" stroke="black" d="M420.5,-50C420.5,-50 378.5,-50 378.5,-50 375.5,-50 372.5,-47 372.5,-44 372.5,-44 372.5,-38 372.5,-38 372.5,-35 375.5,-32 378.5,-32 378.5,-32 420.5,-32 420.5,-32 423.5,-32 426.5,-35 426.5,-38 426.5,-38 426.5,-44 426.5,-44 426.5,-47 423.5,-50 420.5,-50"/>
<text text-anchor="start" x="380.5" y="-38.8" font-family="Helvetica,sans-Serif" font-size="9.00">vm.test.ts</text>
</a>
</g>
</g>
<!-- src/vm/_tests/vm.test.ts&#45;&gt;src/vm/index.ts -->
<g id="edge22" class="edge">
<title>src/vm/_tests/vm.test.ts&#45;&gt;src/vm/index.ts</title>
<path fill="none" stroke="#000000" stroke-width="2" stroke-opacity="0.200000" d="M426.62,-45.04C434.68,-46.29 443.65,-47.68 452.08,-48.98"/>
<polygon fill="#000000" fill-opacity="0.200000" stroke="#000000" stroke-width="2" stroke-opacity="0.200000" points="452.15,-51.12 458.4,-49.96 452.79,-46.97 452.15,-51.12"/>
</g>
<!-- src/wallet/index.ts -->
<g id="node20" class="node">
<title>src/wallet/index.ts</title>
<g id="a_node20"><a xlink:href="src/wallet/index.ts" xlink:title="no&#45;orphans">
<path fill="#ccffcc" stroke="orange" d="M77.5,-177C77.5,-177 35.5,-177 35.5,-177 32.5,-177 29.5,-174 29.5,-171 29.5,-171 29.5,-165 29.5,-165 29.5,-162 32.5,-159 35.5,-159 35.5,-159 77.5,-159 77.5,-159 80.5,-159 83.5,-162 83.5,-165 83.5,-165 83.5,-171 83.5,-171 83.5,-174 80.5,-177 77.5,-177"/>
<text text-anchor="start" x="40.5" y="-165.8" font-family="Helvetica,sans-Serif" font-size="9.00" fill="orange">index.ts</text>
</a>
</g>
</g>
</g>
</svg>
